<svg class="svg-icon" style="width: 1em; height: 1em;vertical-align: middle;fill: currentColor;overflow: hidden;" viewBox="0 0 1024 1024" version="1.1" xmlns="http://www.w3.org/2000/svg"><path d="M803.018 585.461l27.393-215.985-129.549-49.165a208.64 208.64 0 0 0-40.443-56.726C622.584 225.631 570.17 202.072 512 202.072c-57.809 0-110.332 23.56-148.297 61.514-28.204 28.294-48.504 64.626-57.015 105.264l-113.852-48.08 28.672 225.969-0.539 4.496-0.403-0.061-3.261 20.965 1.164 0.172-24.492 205.768 218.207 40.918 222.562-42.393 196.418 45.324-28.146-236.467z m4.238-202.089L783.85 567.816l-116.588-14.77a210.476 210.476 0 0 0 18.185-22.949c22.803-33.783 36.31-74.44 36.31-118.27 0-22.596-3.561-44.353-10.15-64.748l95.649 36.293z m-366.34-42.464c18.088-18.215 43.479-29.731 71.084-29.731 20.002 0 38.663 5.938 54.298 16.029l-154.301 73.703c2.503-23.492 13.005-44.402 28.919-60.001z m165.029 34.136l-8.393 90.293a101.03 101.03 0 0 1-14.217 17.817h-0.12c-18.101 18.1-43.358 29.61-71.216 29.61-7.45 0-14.737-0.845-21.764-2.425l-21.496-7.476a101.55 101.55 0 0 1-27.824-19.709l-0.713-0.647c-14.921-15.316-25.206-35.6-28.014-58.178l172.2-82.242c9.223 9.351 16.61 20.52 21.557 32.957z m-387.41-20.392l84.793 35.804a210.79 210.79 0 0 0-1.084 21.372c0 43.83 13.759 84.487 36.551 118.27a211.16 211.16 0 0 0 42.872 46.042l-139.709-21.644 0.941-7.832-24.364-192.012z m170.861 438.5l-172-32.264 22.07-185.314 161.406 25.014 7.332-1.113 0.821 7.211-19.629 186.466z m22.765 4.266l-1.851-0.352 20.047-190.463-0.133-1.154-0.054-0.474c0.68 0.288 1.357 0.58 2.041 0.86l66.513 68.035 0.12 0.176 0.352 0.236c7.4 6.873 18.681 6.873 26.201-0.236l66.754-68.211c1.632-0.674 3.25-1.376 4.862-2.091l14.993 153.394 21.119-2.072-15.812-161.688a211.26 211.26 0 0 0 30.333-21.418l133.604 16.92 0.402-3.209 24.865 208.807-171.361-39.543-222.995 42.483z" fill="" /></svg>