<svg class="svg-icon" style="width: 1em;height: 1em;vertical-align: middle;fill: currentColor;overflow: hidden;" viewBox="0 0 1024 1024" version="1.1" xmlns="http://www.w3.org/2000/svg"><path d="M896 170.666667H128a42.666667 42.666667 0 0 0-42.666667 42.666666v597.333334a42.666667 42.666667 0 0 0 42.666667 42.666666h768a42.666667 42.666667 0 0 0 42.666667-42.666666V213.333333a42.666667 42.666667 0 0 0-42.666667-42.666666z m-42.666667 597.333333H170.666667V256h682.666666z"  /><path d="M254.506667 398.72l234.666666 149.333333h1.28a42.666667 42.666667 0 0 0 7.04 3.2l3.413334 1.28a42.666667 42.666667 0 0 0 11.093333 2.133334 42.666667 42.666667 0 0 0 10.453333-1.493334l3.413334-1.28a42.666667 42.666667 0 0 0 7.04-3.2h1.28l234.666666-149.333333a42.666667 42.666667 0 1 0-45.653333-71.893333L512 461.44l-211.84-134.613333a42.666667 42.666667 0 1 0-45.653333 71.893333z"  /></svg>